<mxfile host="app.diagrams.net" modified="2024-05-18T16:32:03.320Z" agent="Mozilla/5.0 (Windows NT 10.0; Win64; x64) AppleWebKit/537.36 (KHTML, like Gecko) Chrome/124.0.0.0 Safari/537.36" etag="eluvd_YHQmDOasklHTVf" version="24.4.2" type="google" pages="3">
  <diagram name="Suppliers" id="Bss97l6f5SiMMDqndGWv">
    <mxGraphModel dx="1475" dy="513" grid="0" gridSize="10" guides="1" tooltips="1" connect="1" arrows="1" fold="1" page="0" pageScale="1" pageWidth="827" pageHeight="1169" math="0" shadow="0">
      <root>
        <mxCell id="0" />
        <mxCell id="1" parent="0" />
        <mxCell id="c4Q271Fm2Wud6zsfsdJt-21" style="edgeStyle=none;curved=1;rounded=0;orthogonalLoop=1;jettySize=auto;html=1;exitX=0;exitY=1;exitDx=0;exitDy=0;fontSize=12;startSize=8;endSize=8;" edge="1" parent="1" source="c4Q271Fm2Wud6zsfsdJt-22" target="c4Q271Fm2Wud6zsfsdJt-24">
          <mxGeometry relative="1" as="geometry" />
        </mxCell>
        <mxCell id="c4Q271Fm2Wud6zsfsdJt-22" value="&lt;font style=&quot;font-size: 16px;&quot;&gt;Supplier 1&lt;/font&gt;" style="ellipse;whiteSpace=wrap;html=1;aspect=fixed;" vertex="1" parent="1">
          <mxGeometry x="131" y="23" width="80" height="80" as="geometry" />
        </mxCell>
        <mxCell id="c4Q271Fm2Wud6zsfsdJt-23" style="edgeStyle=none;curved=1;rounded=0;orthogonalLoop=1;jettySize=auto;html=1;exitX=0.5;exitY=1;exitDx=0;exitDy=0;fontSize=12;startSize=8;endSize=8;" edge="1" parent="1" source="c4Q271Fm2Wud6zsfsdJt-24" target="c4Q271Fm2Wud6zsfsdJt-38">
          <mxGeometry relative="1" as="geometry" />
        </mxCell>
        <mxCell id="c4Q271Fm2Wud6zsfsdJt-24" value="&lt;font style=&quot;font-size: 16px;&quot;&gt;Supplier 2&lt;/font&gt;" style="ellipse;whiteSpace=wrap;html=1;aspect=fixed;" vertex="1" parent="1">
          <mxGeometry x="16" width="80" height="80" as="geometry" />
        </mxCell>
        <mxCell id="c4Q271Fm2Wud6zsfsdJt-25" style="edgeStyle=none;curved=1;rounded=0;orthogonalLoop=1;jettySize=auto;html=1;exitX=0.5;exitY=0;exitDx=0;exitDy=0;fontSize=12;startSize=8;endSize=8;" edge="1" parent="1" source="c4Q271Fm2Wud6zsfsdJt-27" target="c4Q271Fm2Wud6zsfsdJt-22">
          <mxGeometry relative="1" as="geometry" />
        </mxCell>
        <mxCell id="c4Q271Fm2Wud6zsfsdJt-26" style="edgeStyle=none;curved=1;rounded=0;orthogonalLoop=1;jettySize=auto;html=1;exitX=1;exitY=0.5;exitDx=0;exitDy=0;fontSize=12;startSize=8;endSize=8;" edge="1" parent="1" source="c4Q271Fm2Wud6zsfsdJt-27" target="c4Q271Fm2Wud6zsfsdJt-34">
          <mxGeometry relative="1" as="geometry" />
        </mxCell>
        <mxCell id="c4Q271Fm2Wud6zsfsdJt-27" value="&lt;font style=&quot;font-size: 16px;&quot;&gt;Supplier 3&lt;/font&gt;" style="ellipse;whiteSpace=wrap;html=1;aspect=fixed;" vertex="1" parent="1">
          <mxGeometry x="166" y="141" width="80" height="80" as="geometry" />
        </mxCell>
        <mxCell id="c4Q271Fm2Wud6zsfsdJt-28" style="edgeStyle=none;curved=1;rounded=0;orthogonalLoop=1;jettySize=auto;html=1;exitX=1;exitY=0;exitDx=0;exitDy=0;fontSize=12;startSize=8;endSize=8;" edge="1" parent="1" source="c4Q271Fm2Wud6zsfsdJt-29" target="c4Q271Fm2Wud6zsfsdJt-24">
          <mxGeometry relative="1" as="geometry" />
        </mxCell>
        <mxCell id="c4Q271Fm2Wud6zsfsdJt-29" value="&lt;font style=&quot;font-size: 16px;&quot;&gt;Supplier 4&lt;/font&gt;" style="ellipse;whiteSpace=wrap;html=1;aspect=fixed;" vertex="1" parent="1">
          <mxGeometry x="-83" y="48" width="80" height="80" as="geometry" />
        </mxCell>
        <mxCell id="c4Q271Fm2Wud6zsfsdJt-30" style="edgeStyle=none;curved=1;rounded=0;orthogonalLoop=1;jettySize=auto;html=1;entryX=0.5;entryY=1;entryDx=0;entryDy=0;fontSize=12;startSize=8;endSize=8;" edge="1" parent="1" source="c4Q271Fm2Wud6zsfsdJt-31" target="c4Q271Fm2Wud6zsfsdJt-29">
          <mxGeometry relative="1" as="geometry" />
        </mxCell>
        <mxCell id="c4Q271Fm2Wud6zsfsdJt-31" value="&lt;font style=&quot;font-size: 16px;&quot;&gt;Supplier 5&lt;/font&gt;" style="ellipse;whiteSpace=wrap;html=1;aspect=fixed;" vertex="1" parent="1">
          <mxGeometry x="-130" y="158" width="80" height="80" as="geometry" />
        </mxCell>
        <mxCell id="c4Q271Fm2Wud6zsfsdJt-32" style="edgeStyle=none;curved=1;rounded=0;orthogonalLoop=1;jettySize=auto;html=1;fontSize=12;startSize=8;endSize=8;" edge="1" parent="1" source="c4Q271Fm2Wud6zsfsdJt-34" target="c4Q271Fm2Wud6zsfsdJt-35">
          <mxGeometry relative="1" as="geometry" />
        </mxCell>
        <mxCell id="c4Q271Fm2Wud6zsfsdJt-33" style="edgeStyle=none;curved=1;rounded=0;orthogonalLoop=1;jettySize=auto;html=1;entryX=1;entryY=0;entryDx=0;entryDy=0;fontSize=12;startSize=8;endSize=8;" edge="1" parent="1" source="c4Q271Fm2Wud6zsfsdJt-34" target="c4Q271Fm2Wud6zsfsdJt-37">
          <mxGeometry relative="1" as="geometry" />
        </mxCell>
        <mxCell id="c4Q271Fm2Wud6zsfsdJt-34" value="&lt;font style=&quot;font-size: 16px;&quot;&gt;Supplier 6&lt;/font&gt;" style="ellipse;whiteSpace=wrap;html=1;aspect=fixed;" vertex="1" parent="1">
          <mxGeometry x="310" y="147" width="80" height="80" as="geometry" />
        </mxCell>
        <mxCell id="c4Q271Fm2Wud6zsfsdJt-35" value="&lt;font style=&quot;font-size: 16px;&quot;&gt;Supplier 7&lt;/font&gt;" style="ellipse;whiteSpace=wrap;html=1;aspect=fixed;" vertex="1" parent="1">
          <mxGeometry x="449" y="144" width="80" height="80" as="geometry" />
        </mxCell>
        <mxCell id="c4Q271Fm2Wud6zsfsdJt-36" style="edgeStyle=none;curved=1;rounded=0;orthogonalLoop=1;jettySize=auto;html=1;exitX=0;exitY=0;exitDx=0;exitDy=0;entryX=1;entryY=1;entryDx=0;entryDy=0;fontSize=12;startSize=8;endSize=8;" edge="1" parent="1" source="c4Q271Fm2Wud6zsfsdJt-37" target="c4Q271Fm2Wud6zsfsdJt-27">
          <mxGeometry relative="1" as="geometry" />
        </mxCell>
        <mxCell id="c4Q271Fm2Wud6zsfsdJt-37" value="&lt;font style=&quot;font-size: 16px;&quot;&gt;Supplier 8&lt;/font&gt;" style="ellipse;whiteSpace=wrap;html=1;aspect=fixed;" vertex="1" parent="1">
          <mxGeometry x="266" y="250" width="80" height="80" as="geometry" />
        </mxCell>
        <mxCell id="c4Q271Fm2Wud6zsfsdJt-38" value="&lt;font style=&quot;font-size: 16px;&quot;&gt;Supplier 9&lt;/font&gt;" style="ellipse;whiteSpace=wrap;html=1;aspect=fixed;" vertex="1" parent="1">
          <mxGeometry x="16" y="128" width="80" height="80" as="geometry" />
        </mxCell>
        <mxCell id="c4Q271Fm2Wud6zsfsdJt-39" style="edgeStyle=none;curved=1;rounded=0;orthogonalLoop=1;jettySize=auto;html=1;fontSize=12;startSize=8;endSize=8;exitX=1;exitY=0.5;exitDx=0;exitDy=0;" edge="1" parent="1" source="c4Q271Fm2Wud6zsfsdJt-40" target="c4Q271Fm2Wud6zsfsdJt-31">
          <mxGeometry relative="1" as="geometry">
            <mxPoint x="47" y="278" as="sourcePoint" />
          </mxGeometry>
        </mxCell>
        <mxCell id="c4Q271Fm2Wud6zsfsdJt-40" value="&lt;font style=&quot;font-size: 16px;&quot;&gt;Supplier 10&lt;/font&gt;" style="ellipse;whiteSpace=wrap;html=1;aspect=fixed;" vertex="1" parent="1">
          <mxGeometry x="-265" y="158" width="80" height="80" as="geometry" />
        </mxCell>
      </root>
    </mxGraphModel>
  </diagram>
  <diagram id="C84SIWdYVP0yn8myiEHB" name="Restaurants">
    <mxGraphModel dx="2813" dy="369" grid="0" gridSize="10" guides="1" tooltips="1" connect="1" arrows="1" fold="1" page="0" pageScale="1" pageWidth="827" pageHeight="1169" math="0" shadow="0">
      <root>
        <mxCell id="0" />
        <mxCell id="1" parent="0" />
        <mxCell id="7A7XeE9Nf-1nv5Z8wqqt-1" value="&lt;span style=&quot;font-size: 16px;&quot;&gt;Restaurant 1&lt;/span&gt;" style="ellipse;whiteSpace=wrap;html=1;aspect=fixed;" vertex="1" parent="1">
          <mxGeometry x="-353" y="511" width="80" height="80" as="geometry" />
        </mxCell>
        <mxCell id="7A7XeE9Nf-1nv5Z8wqqt-2" value="&lt;span style=&quot;font-size: 16px;&quot;&gt;Restaurant 2&lt;/span&gt;" style="ellipse;whiteSpace=wrap;html=1;aspect=fixed;" vertex="1" parent="1">
          <mxGeometry x="-919" y="516" width="80" height="80" as="geometry" />
        </mxCell>
        <mxCell id="7A7XeE9Nf-1nv5Z8wqqt-3" value="&lt;span style=&quot;font-size: 16px;&quot;&gt;Restaurant 3&lt;/span&gt;" style="ellipse;whiteSpace=wrap;html=1;aspect=fixed;" vertex="1" parent="1">
          <mxGeometry x="-746" y="523" width="80" height="80" as="geometry" />
        </mxCell>
        <mxCell id="7A7XeE9Nf-1nv5Z8wqqt-4" value="&lt;span style=&quot;font-size: 16px;&quot;&gt;Restaurant 4&lt;/span&gt;" style="ellipse;whiteSpace=wrap;html=1;aspect=fixed;" vertex="1" parent="1">
          <mxGeometry x="31" y="527" width="80" height="80" as="geometry" />
        </mxCell>
        <mxCell id="7A7XeE9Nf-1nv5Z8wqqt-5" value="&lt;span style=&quot;font-size: 16px;&quot;&gt;Restaurant 9&lt;/span&gt;" style="ellipse;whiteSpace=wrap;html=1;aspect=fixed;" vertex="1" parent="1">
          <mxGeometry x="-540" y="511" width="80" height="80" as="geometry" />
        </mxCell>
        <mxCell id="7A7XeE9Nf-1nv5Z8wqqt-6" style="edgeStyle=none;curved=1;rounded=0;orthogonalLoop=1;jettySize=auto;html=1;exitX=0.5;exitY=0;exitDx=0;exitDy=0;entryX=0.5;entryY=1;entryDx=0;entryDy=0;fontSize=12;startSize=8;endSize=8;" edge="1" parent="1" source="7A7XeE9Nf-1nv5Z8wqqt-8" target="7A7XeE9Nf-1nv5Z8wqqt-1">
          <mxGeometry relative="1" as="geometry" />
        </mxCell>
        <mxCell id="7A7XeE9Nf-1nv5Z8wqqt-7" style="edgeStyle=none;curved=1;rounded=0;orthogonalLoop=1;jettySize=auto;html=1;exitX=0.5;exitY=0;exitDx=0;exitDy=0;fontSize=12;startSize=8;endSize=8;entryX=0.5;entryY=1;entryDx=0;entryDy=0;" edge="1" parent="1" source="7A7XeE9Nf-1nv5Z8wqqt-8" target="7A7XeE9Nf-1nv5Z8wqqt-5">
          <mxGeometry relative="1" as="geometry" />
        </mxCell>
        <mxCell id="7A7XeE9Nf-1nv5Z8wqqt-8" value="&lt;span style=&quot;font-size: 16px;&quot;&gt;Supplier 1&lt;/span&gt;" style="whiteSpace=wrap;html=1;aspect=fixed;" vertex="1" parent="1">
          <mxGeometry x="-467" y="662" width="80" height="80" as="geometry" />
        </mxCell>
        <mxCell id="7A7XeE9Nf-1nv5Z8wqqt-9" style="edgeStyle=none;curved=1;rounded=0;orthogonalLoop=1;jettySize=auto;html=1;exitX=0.5;exitY=0;exitDx=0;exitDy=0;entryX=0.5;entryY=1;entryDx=0;entryDy=0;fontSize=12;startSize=8;endSize=8;" edge="1" parent="1" source="7A7XeE9Nf-1nv5Z8wqqt-10" target="7A7XeE9Nf-1nv5Z8wqqt-2">
          <mxGeometry relative="1" as="geometry" />
        </mxCell>
        <mxCell id="7A7XeE9Nf-1nv5Z8wqqt-10" value="&lt;span style=&quot;font-size: 16px;&quot;&gt;Supplier 2&lt;/span&gt;" style="whiteSpace=wrap;html=1;aspect=fixed;" vertex="1" parent="1">
          <mxGeometry x="-919" y="663" width="80" height="80" as="geometry" />
        </mxCell>
        <mxCell id="7A7XeE9Nf-1nv5Z8wqqt-11" style="edgeStyle=none;curved=1;rounded=0;orthogonalLoop=1;jettySize=auto;html=1;exitX=0.5;exitY=0;exitDx=0;exitDy=0;entryX=0.5;entryY=1;entryDx=0;entryDy=0;fontSize=12;startSize=8;endSize=8;" edge="1" parent="1" source="7A7XeE9Nf-1nv5Z8wqqt-12" target="7A7XeE9Nf-1nv5Z8wqqt-3">
          <mxGeometry relative="1" as="geometry" />
        </mxCell>
        <mxCell id="7A7XeE9Nf-1nv5Z8wqqt-12" value="&lt;span style=&quot;font-size: 16px;&quot;&gt;Supplier 3&lt;/span&gt;" style="whiteSpace=wrap;html=1;aspect=fixed;" vertex="1" parent="1">
          <mxGeometry x="-781" y="658" width="80" height="80" as="geometry" />
        </mxCell>
        <mxCell id="7A7XeE9Nf-1nv5Z8wqqt-13" style="edgeStyle=none;curved=1;rounded=0;orthogonalLoop=1;jettySize=auto;html=1;exitX=0.5;exitY=0;exitDx=0;exitDy=0;entryX=0.5;entryY=1;entryDx=0;entryDy=0;fontSize=12;startSize=8;endSize=8;" edge="1" parent="1" source="7A7XeE9Nf-1nv5Z8wqqt-14" target="7A7XeE9Nf-1nv5Z8wqqt-3">
          <mxGeometry relative="1" as="geometry" />
        </mxCell>
        <mxCell id="7A7XeE9Nf-1nv5Z8wqqt-14" value="&lt;span style=&quot;font-size: 16px;&quot;&gt;Supplier 4&lt;/span&gt;" style="whiteSpace=wrap;html=1;aspect=fixed;" vertex="1" parent="1">
          <mxGeometry x="-695" y="658" width="80" height="80" as="geometry" />
        </mxCell>
        <mxCell id="7A7XeE9Nf-1nv5Z8wqqt-15" style="edgeStyle=none;curved=1;rounded=0;orthogonalLoop=1;jettySize=auto;html=1;exitX=0.5;exitY=0;exitDx=0;exitDy=0;entryX=0.5;entryY=1;entryDx=0;entryDy=0;fontSize=12;startSize=8;endSize=8;" edge="1" parent="1" source="7A7XeE9Nf-1nv5Z8wqqt-16" target="7A7XeE9Nf-1nv5Z8wqqt-1">
          <mxGeometry relative="1" as="geometry" />
        </mxCell>
        <mxCell id="7A7XeE9Nf-1nv5Z8wqqt-16" value="&lt;span style=&quot;font-size: 16px;&quot;&gt;Supplier 5&lt;/span&gt;" style="whiteSpace=wrap;html=1;aspect=fixed;" vertex="1" parent="1">
          <mxGeometry x="-353" y="662" width="80" height="80" as="geometry" />
        </mxCell>
        <mxCell id="7A7XeE9Nf-1nv5Z8wqqt-17" style="edgeStyle=none;curved=1;rounded=0;orthogonalLoop=1;jettySize=auto;html=1;exitX=0.5;exitY=0;exitDx=0;exitDy=0;entryX=0.5;entryY=1;entryDx=0;entryDy=0;fontSize=12;startSize=8;endSize=8;" edge="1" parent="1" source="7A7XeE9Nf-1nv5Z8wqqt-18" target="7A7XeE9Nf-1nv5Z8wqqt-4">
          <mxGeometry relative="1" as="geometry" />
        </mxCell>
        <mxCell id="7A7XeE9Nf-1nv5Z8wqqt-18" value="&lt;span style=&quot;font-size: 16px;&quot;&gt;Supplier 6&lt;/span&gt;" style="whiteSpace=wrap;html=1;aspect=fixed;" vertex="1" parent="1">
          <mxGeometry x="-110" y="663" width="80" height="80" as="geometry" />
        </mxCell>
        <mxCell id="7A7XeE9Nf-1nv5Z8wqqt-19" style="edgeStyle=none;curved=1;rounded=0;orthogonalLoop=1;jettySize=auto;html=1;exitX=0.5;exitY=0;exitDx=0;exitDy=0;fontSize=12;startSize=8;endSize=8;" edge="1" parent="1" source="7A7XeE9Nf-1nv5Z8wqqt-20" target="7A7XeE9Nf-1nv5Z8wqqt-4">
          <mxGeometry relative="1" as="geometry" />
        </mxCell>
        <mxCell id="7A7XeE9Nf-1nv5Z8wqqt-20" value="&lt;span style=&quot;font-size: 16px;&quot;&gt;Supplier 7&lt;/span&gt;" style="whiteSpace=wrap;html=1;aspect=fixed;" vertex="1" parent="1">
          <mxGeometry x="31" y="663" width="80" height="80" as="geometry" />
        </mxCell>
        <mxCell id="7A7XeE9Nf-1nv5Z8wqqt-21" style="edgeStyle=none;curved=1;rounded=0;orthogonalLoop=1;jettySize=auto;html=1;exitX=0.5;exitY=0;exitDx=0;exitDy=0;entryX=0.5;entryY=1;entryDx=0;entryDy=0;fontSize=12;startSize=8;endSize=8;" edge="1" parent="1" source="7A7XeE9Nf-1nv5Z8wqqt-22" target="7A7XeE9Nf-1nv5Z8wqqt-1">
          <mxGeometry relative="1" as="geometry" />
        </mxCell>
        <mxCell id="7A7XeE9Nf-1nv5Z8wqqt-22" value="&lt;span style=&quot;font-size: 16px;&quot;&gt;Supplier 8&lt;/span&gt;" style="whiteSpace=wrap;html=1;aspect=fixed;" vertex="1" parent="1">
          <mxGeometry x="-233" y="662" width="80" height="80" as="geometry" />
        </mxCell>
        <mxCell id="7A7XeE9Nf-1nv5Z8wqqt-23" style="edgeStyle=none;curved=1;rounded=0;orthogonalLoop=1;jettySize=auto;html=1;exitX=0.5;exitY=0;exitDx=0;exitDy=0;entryX=0.5;entryY=1;entryDx=0;entryDy=0;fontSize=12;startSize=8;endSize=8;" edge="1" parent="1" source="7A7XeE9Nf-1nv5Z8wqqt-24" target="7A7XeE9Nf-1nv5Z8wqqt-4">
          <mxGeometry relative="1" as="geometry" />
        </mxCell>
        <mxCell id="7A7XeE9Nf-1nv5Z8wqqt-24" value="&lt;span style=&quot;font-size: 16px;&quot;&gt;Supplier 9&lt;/span&gt;" style="whiteSpace=wrap;html=1;aspect=fixed;" vertex="1" parent="1">
          <mxGeometry x="170" y="663" width="80" height="80" as="geometry" />
        </mxCell>
        <mxCell id="7A7XeE9Nf-1nv5Z8wqqt-25" style="edgeStyle=none;curved=1;rounded=0;orthogonalLoop=1;jettySize=auto;html=1;exitX=0.5;exitY=0;exitDx=0;exitDy=0;fontSize=12;startSize=8;endSize=8;entryX=0.5;entryY=1;entryDx=0;entryDy=0;" edge="1" parent="1" source="7A7XeE9Nf-1nv5Z8wqqt-26" target="7A7XeE9Nf-1nv5Z8wqqt-5">
          <mxGeometry relative="1" as="geometry" />
        </mxCell>
        <mxCell id="7A7XeE9Nf-1nv5Z8wqqt-26" value="&lt;span style=&quot;font-size: 16px;&quot;&gt;Supplier 10&lt;/span&gt;" style="whiteSpace=wrap;html=1;aspect=fixed;" vertex="1" parent="1">
          <mxGeometry x="-581" y="662" width="80" height="80" as="geometry" />
        </mxCell>
      </root>
    </mxGraphModel>
  </diagram>
  <diagram id="qGd9Nq4ZJKFyFFTBzVo3" name="Dishes">
    <mxGraphModel dx="3443" dy="479" grid="0" gridSize="10" guides="1" tooltips="1" connect="1" arrows="1" fold="1" page="0" pageScale="1" pageWidth="827" pageHeight="1169" math="0" shadow="0">
      <root>
        <mxCell id="0" />
        <mxCell id="1" parent="0" />
        <mxCell id="Hk1moE4tDtJ9cWW3x1br-1" value="&lt;span style=&quot;font-size: 16px;&quot;&gt;Dish 1&lt;/span&gt;" style="ellipse;whiteSpace=wrap;html=1;aspect=fixed;" vertex="1" parent="1">
          <mxGeometry x="-522" y="528" width="80" height="80" as="geometry" />
        </mxCell>
        <mxCell id="Hk1moE4tDtJ9cWW3x1br-2" value="&lt;span style=&quot;font-size: 16px;&quot;&gt;Dish 6&lt;/span&gt;" style="ellipse;whiteSpace=wrap;html=1;aspect=fixed;" vertex="1" parent="1">
          <mxGeometry x="-1080" y="536" width="80" height="80" as="geometry" />
        </mxCell>
        <mxCell id="Hk1moE4tDtJ9cWW3x1br-3" value="&lt;span style=&quot;font-size: 16px;&quot;&gt;Dish 3&lt;/span&gt;" style="ellipse;whiteSpace=wrap;html=1;aspect=fixed;" vertex="1" parent="1">
          <mxGeometry x="-631" y="524" width="80" height="80" as="geometry" />
        </mxCell>
        <mxCell id="Hk1moE4tDtJ9cWW3x1br-4" value="&lt;span style=&quot;font-size: 16px;&quot;&gt;Dish 2&lt;/span&gt;" style="ellipse;whiteSpace=wrap;html=1;aspect=fixed;" vertex="1" parent="1">
          <mxGeometry x="-902" y="575" width="80" height="80" as="geometry" />
        </mxCell>
        <mxCell id="Hk1moE4tDtJ9cWW3x1br-5" style="edgeStyle=none;curved=1;rounded=0;orthogonalLoop=1;jettySize=auto;html=1;exitX=0.5;exitY=0;exitDx=0;exitDy=0;entryX=0.5;entryY=1;entryDx=0;entryDy=0;fontSize=12;startSize=8;endSize=8;" edge="1" parent="1" source="Hk1moE4tDtJ9cWW3x1br-6" target="Hk1moE4tDtJ9cWW3x1br-24">
          <mxGeometry relative="1" as="geometry" />
        </mxCell>
        <mxCell id="Hk1moE4tDtJ9cWW3x1br-6" value="&lt;span style=&quot;font-size: 16px;&quot;&gt;Restaurant 3&lt;/span&gt;" style="whiteSpace=wrap;html=1;aspect=fixed;" vertex="1" parent="1">
          <mxGeometry x="-756" y="667" width="80" height="80" as="geometry" />
        </mxCell>
        <mxCell id="Hk1moE4tDtJ9cWW3x1br-7" style="edgeStyle=none;curved=1;rounded=0;orthogonalLoop=1;jettySize=auto;html=1;exitX=0.5;exitY=0;exitDx=0;exitDy=0;entryX=0.5;entryY=1;entryDx=0;entryDy=0;fontSize=12;startSize=8;endSize=8;" edge="1" parent="1" source="Hk1moE4tDtJ9cWW3x1br-9" target="Hk1moE4tDtJ9cWW3x1br-2">
          <mxGeometry relative="1" as="geometry" />
        </mxCell>
        <mxCell id="Hk1moE4tDtJ9cWW3x1br-8" style="edgeStyle=none;curved=1;rounded=0;orthogonalLoop=1;jettySize=auto;html=1;exitX=0.5;exitY=0;exitDx=0;exitDy=0;entryX=0.5;entryY=1;entryDx=0;entryDy=0;fontSize=12;startSize=8;endSize=8;" edge="1" parent="1" source="Hk1moE4tDtJ9cWW3x1br-9" target="Hk1moE4tDtJ9cWW3x1br-26">
          <mxGeometry relative="1" as="geometry" />
        </mxCell>
        <mxCell id="Hk1moE4tDtJ9cWW3x1br-9" value="&lt;span style=&quot;font-size: 16px;&quot;&gt;Restaurant 1&lt;/span&gt;" style="whiteSpace=wrap;html=1;aspect=fixed;" vertex="1" parent="1">
          <mxGeometry x="-1113" y="663" width="80" height="80" as="geometry" />
        </mxCell>
        <mxCell id="Hk1moE4tDtJ9cWW3x1br-10" style="edgeStyle=none;curved=1;rounded=0;orthogonalLoop=1;jettySize=auto;html=1;exitX=0.5;exitY=0;exitDx=0;exitDy=0;entryX=0.5;entryY=1;entryDx=0;entryDy=0;fontSize=12;startSize=8;endSize=8;" edge="1" parent="1" source="Hk1moE4tDtJ9cWW3x1br-11" target="Hk1moE4tDtJ9cWW3x1br-25">
          <mxGeometry relative="1" as="geometry" />
        </mxCell>
        <mxCell id="Hk1moE4tDtJ9cWW3x1br-11" value="&lt;span style=&quot;font-size: 16px;&quot;&gt;Restaurant 6&lt;/span&gt;" style="whiteSpace=wrap;html=1;aspect=fixed;" vertex="1" parent="1">
          <mxGeometry x="-1360" y="667" width="80" height="80" as="geometry" />
        </mxCell>
        <mxCell id="Hk1moE4tDtJ9cWW3x1br-12" style="edgeStyle=none;curved=1;rounded=0;orthogonalLoop=1;jettySize=auto;html=1;exitX=0.5;exitY=0;exitDx=0;exitDy=0;entryX=1;entryY=1;entryDx=0;entryDy=0;fontSize=12;startSize=8;endSize=8;" edge="1" parent="1" source="Hk1moE4tDtJ9cWW3x1br-13" target="Hk1moE4tDtJ9cWW3x1br-4">
          <mxGeometry relative="1" as="geometry" />
        </mxCell>
        <mxCell id="Hk1moE4tDtJ9cWW3x1br-13" value="&lt;span style=&quot;font-size: 16px;&quot;&gt;Restaurant 7&lt;/span&gt;" style="whiteSpace=wrap;html=1;aspect=fixed;" vertex="1" parent="1">
          <mxGeometry x="-852" y="667" width="80" height="80" as="geometry" />
        </mxCell>
        <mxCell id="Hk1moE4tDtJ9cWW3x1br-14" style="edgeStyle=none;curved=1;rounded=0;orthogonalLoop=1;jettySize=auto;html=1;exitX=0.5;exitY=0;exitDx=0;exitDy=0;fontSize=12;startSize=8;endSize=8;" edge="1" parent="1" source="Hk1moE4tDtJ9cWW3x1br-15" target="Hk1moE4tDtJ9cWW3x1br-3">
          <mxGeometry relative="1" as="geometry" />
        </mxCell>
        <mxCell id="Hk1moE4tDtJ9cWW3x1br-15" value="&lt;span style=&quot;font-size: 16px;&quot;&gt;Restaurant 4&lt;/span&gt;" style="whiteSpace=wrap;html=1;aspect=fixed;" vertex="1" parent="1">
          <mxGeometry x="-642" y="667" width="80" height="80" as="geometry" />
        </mxCell>
        <mxCell id="Hk1moE4tDtJ9cWW3x1br-16" style="edgeStyle=none;curved=1;rounded=0;orthogonalLoop=1;jettySize=auto;html=1;exitX=0.5;exitY=0;exitDx=0;exitDy=0;entryX=0.5;entryY=1;entryDx=0;entryDy=0;fontSize=12;startSize=8;endSize=8;" edge="1" parent="1" source="Hk1moE4tDtJ9cWW3x1br-17" target="Hk1moE4tDtJ9cWW3x1br-27">
          <mxGeometry relative="1" as="geometry" />
        </mxCell>
        <mxCell id="Hk1moE4tDtJ9cWW3x1br-17" value="&lt;span style=&quot;font-size: 16px;&quot;&gt;Restaurant 9&lt;/span&gt;" style="whiteSpace=wrap;html=1;aspect=fixed;" vertex="1" parent="1">
          <mxGeometry x="-410" y="666" width="80" height="80" as="geometry" />
        </mxCell>
        <mxCell id="Hk1moE4tDtJ9cWW3x1br-18" style="edgeStyle=none;curved=1;rounded=0;orthogonalLoop=1;jettySize=auto;html=1;exitX=0.5;exitY=0;exitDx=0;exitDy=0;entryX=0.5;entryY=1;entryDx=0;entryDy=0;fontSize=12;startSize=8;endSize=8;" edge="1" parent="1" source="Hk1moE4tDtJ9cWW3x1br-19" target="Hk1moE4tDtJ9cWW3x1br-1">
          <mxGeometry relative="1" as="geometry" />
        </mxCell>
        <mxCell id="Hk1moE4tDtJ9cWW3x1br-19" value="&lt;span style=&quot;font-size: 16px;&quot;&gt;Restaurant 5&lt;/span&gt;" style="whiteSpace=wrap;html=1;aspect=fixed;" vertex="1" parent="1">
          <mxGeometry x="-522" y="667" width="80" height="80" as="geometry" />
        </mxCell>
        <mxCell id="Hk1moE4tDtJ9cWW3x1br-20" style="edgeStyle=none;curved=1;rounded=0;orthogonalLoop=1;jettySize=auto;html=1;exitX=0.5;exitY=0;exitDx=0;exitDy=0;entryX=0.5;entryY=1;entryDx=0;entryDy=0;fontSize=12;startSize=8;endSize=8;" edge="1" parent="1" source="Hk1moE4tDtJ9cWW3x1br-21" target="Hk1moE4tDtJ9cWW3x1br-26">
          <mxGeometry relative="1" as="geometry" />
        </mxCell>
        <mxCell id="Hk1moE4tDtJ9cWW3x1br-21" value="&lt;span style=&quot;font-size: 16px;&quot;&gt;Restaurant 10&lt;/span&gt;" style="whiteSpace=wrap;html=1;aspect=fixed;" vertex="1" parent="1">
          <mxGeometry x="-1209" y="663" width="80" height="80" as="geometry" />
        </mxCell>
        <mxCell id="Hk1moE4tDtJ9cWW3x1br-22" style="edgeStyle=none;curved=1;rounded=0;orthogonalLoop=1;jettySize=auto;html=1;exitX=0.5;exitY=0;exitDx=0;exitDy=0;fontSize=12;startSize=8;endSize=8;entryX=0;entryY=1;entryDx=0;entryDy=0;" edge="1" parent="1" source="Hk1moE4tDtJ9cWW3x1br-23" target="Hk1moE4tDtJ9cWW3x1br-4">
          <mxGeometry relative="1" as="geometry" />
        </mxCell>
        <mxCell id="Hk1moE4tDtJ9cWW3x1br-23" value="&lt;span style=&quot;font-size: 16px;&quot;&gt;Restaurant 2&lt;/span&gt;" style="whiteSpace=wrap;html=1;aspect=fixed;" vertex="1" parent="1">
          <mxGeometry x="-963" y="669" width="80" height="80" as="geometry" />
        </mxCell>
        <mxCell id="Hk1moE4tDtJ9cWW3x1br-24" value="&lt;span style=&quot;font-size: 16px;&quot;&gt;Dish 5&lt;/span&gt;" style="ellipse;whiteSpace=wrap;html=1;aspect=fixed;" vertex="1" parent="1">
          <mxGeometry x="-777" y="522" width="80" height="80" as="geometry" />
        </mxCell>
        <mxCell id="Hk1moE4tDtJ9cWW3x1br-25" value="&lt;span style=&quot;font-size: 16px;&quot;&gt;Dish 4&lt;/span&gt;" style="ellipse;whiteSpace=wrap;html=1;aspect=fixed;" vertex="1" parent="1">
          <mxGeometry x="-1360" y="534" width="80" height="80" as="geometry" />
        </mxCell>
        <mxCell id="Hk1moE4tDtJ9cWW3x1br-26" value="&lt;span style=&quot;font-size: 16px;&quot;&gt;Dish 9&lt;/span&gt;" style="ellipse;whiteSpace=wrap;html=1;aspect=fixed;" vertex="1" parent="1">
          <mxGeometry x="-1160" y="538" width="80" height="80" as="geometry" />
        </mxCell>
        <mxCell id="Hk1moE4tDtJ9cWW3x1br-27" value="&lt;span style=&quot;font-size: 16px;&quot;&gt;Dish 8&lt;/span&gt;" style="ellipse;whiteSpace=wrap;html=1;aspect=fixed;" vertex="1" parent="1">
          <mxGeometry x="-410" y="527" width="80" height="80" as="geometry" />
        </mxCell>
        <mxCell id="Hk1moE4tDtJ9cWW3x1br-28" style="edgeStyle=none;curved=1;rounded=0;orthogonalLoop=1;jettySize=auto;html=1;exitX=0.5;exitY=0;exitDx=0;exitDy=0;entryX=0.5;entryY=1;entryDx=0;entryDy=0;fontSize=12;startSize=8;endSize=8;" edge="1" parent="1" source="Hk1moE4tDtJ9cWW3x1br-29" target="Hk1moE4tDtJ9cWW3x1br-30">
          <mxGeometry relative="1" as="geometry" />
        </mxCell>
        <mxCell id="Hk1moE4tDtJ9cWW3x1br-29" value="&lt;span style=&quot;font-size: 16px;&quot;&gt;Restaurant 8&lt;/span&gt;" style="whiteSpace=wrap;html=1;aspect=fixed;" vertex="1" parent="1">
          <mxGeometry x="-298" y="665" width="80" height="80" as="geometry" />
        </mxCell>
        <mxCell id="Hk1moE4tDtJ9cWW3x1br-30" value="&lt;span style=&quot;font-size: 16px;&quot;&gt;Dish 7&lt;/span&gt;" style="ellipse;whiteSpace=wrap;html=1;aspect=fixed;" vertex="1" parent="1">
          <mxGeometry x="-298" y="527" width="80" height="80" as="geometry" />
        </mxCell>
      </root>
    </mxGraphModel>
  </diagram>
</mxfile>
